<svg xmlns="http://www.w3.org/2000/svg" viewBox="0 0 32 32" width="32" height="32">
<rect width="32" height="32" rx="8" fill="#CF0C19"/>
<circle cx="16" cy="16" r="11.5" fill="#FFC300"/>
<path d="M 6 13.8 C 7.8 12.8, 9.6 14.6, 11.4 13.8 C 13.2 12.8, 15 14.6, 16.8 13.8 C 18.6 12.8, 20.4 14.6, 22.2 13.8 C 23.4 13.2, 24.6 13.2, 26 13.8 L 26 15.6 C 24.6 16.6, 23.4 14.8, 22.2 15.6 C 20.4 16.6, 18.6 14.8, 16.8 15.6 C 15 16.6, 13.2 14.8, 11.4 15.6 C 9.6 16.6, 7.8 14.8, 6 15.6 Z" fill="#CF0C19"/>
<path d="M 6 17 C 7.8 16, 9.6 17.8, 11.4 17 C 13.2 16, 15 17.8, 16.8 17 C 18.6 16, 20.4 17.8, 22.2 17 C 23.4 16.4, 24.6 16.4, 26 17 L 26 18.8 C 24.6 19.8, 23.4 18, 22.2 18.8 C 20.4 19.8, 18.6 18, 16.8 18.8 C 15 19.8, 13.2 18, 11.4 18.8 C 9.6 19.8, 7.8 18, 6 18.8 Z" fill="#CF0C19"/>
</svg>
